<mxfile host="Electron" agent="Mozilla/5.0 (Windows NT 10.0; Win64; x64) AppleWebKit/537.36 (KHTML, like Gecko) draw.io/24.7.17 Chrome/128.0.6613.36 Electron/32.0.1 Safari/537.36" version="24.7.17">
  <diagram id="flow" name="Flowchart ESP32 System">
    <mxGraphModel dx="1824" dy="1022" grid="0" gridSize="10" guides="1" tooltips="1" connect="1" arrows="1" fold="1" page="1" pageScale="1" pageWidth="1169" pageHeight="827" math="0" shadow="0">
      <root>
        <mxCell id="0" />
        <mxCell id="1" parent="0" />
        <mxCell id="start" value="Start" style="rounded=1;whiteSpace=wrap;html=1;fillColor=#60a917;strokeColor=#2D7600;fontSize=14;fontStyle=1;fontColor=#ffffff;" parent="1" vertex="1">
          <mxGeometry x="450" width="120" height="50" as="geometry" />
        </mxCell>
        <mxCell id="init" value="Inisialisasi ESP32, MPU6050, Servo, dan PIR/Button&#xa;(Semua servo di posisi awal 90°)" style="rounded=1;whiteSpace=wrap;html=1;fillColor=#60a917;strokeColor=#2D7600;fontSize=13;fontColor=#ffffff;" parent="1" vertex="1">
          <mxGeometry x="376" y="73" width="271" height="74" as="geometry" />
        </mxCell>
        <mxCell id="loop" value="Loop utama (while true)" style="rounded=1;whiteSpace=wrap;html=1;fillColor=#60a917;strokeColor=#2D7600;fontSize=13;fontColor=#ffffff;" parent="1" vertex="1">
          <mxGeometry x="422" y="170" width="180" height="50" as="geometry" />
        </mxCell>
        <mxCell id="readSensor" value="Baca sensor MPU6050&#xa;(Roll, Pitch, Yaw)" style="rounded=1;whiteSpace=wrap;html=1;fillColor=#60a917;strokeColor=#2D7600;fontSize=13;fontColor=#ffffff;" parent="1" vertex="1">
          <mxGeometry x="372" y="240" width="280" height="60" as="geometry" />
        </mxCell>
        <mxCell id="checkPIR" value="Cek PIR/Button aktif?" style="rhombus;whiteSpace=wrap;html=1;fillColor=#60a917;strokeColor=#2D7600;fontSize=13;fontColor=#ffffff;" parent="1" vertex="1">
          <mxGeometry x="435" y="321" width="160" height="80" as="geometry" />
        </mxCell>
        <mxCell id="pirAction" value="Jika aktif: Semua servo bergerak ke 45°,&#xa;lalu kembali ke 90°" style="rounded=1;whiteSpace=wrap;html=1;fillColor=#60a917;strokeColor=#2D7600;fontSize=13;fontColor=#ffffff;" parent="1" vertex="1">
          <mxGeometry x="179" y="435" width="244" height="70" as="geometry" />
        </mxCell>
        <mxCell id="execute" value="Eksekusi perintah:&lt;br&gt;ROLL --&amp;gt; Servo1&amp;amp;2&lt;br&gt;PITCH --&amp;gt; Servo3&amp;amp;4&lt;br&gt;YAW --&amp;gt; Servo5" style="rounded=1;whiteSpace=wrap;html=1;fillColor=#60a917;strokeColor=#2D7600;fontSize=13;fontColor=#ffffff;" parent="1" vertex="1">
          <mxGeometry x="337" y="560" width="340" height="60" as="geometry" />
        </mxCell>
        <mxCell id="endLoop" value="Kembali ke Loop utama" style="rounded=1;whiteSpace=wrap;html=1;fillColor=#60a917;strokeColor=#2D7600;fontSize=13;fontColor=#ffffff;" parent="1" vertex="1">
          <mxGeometry x="417" y="675" width="180" height="60" as="geometry" />
        </mxCell>
        <mxCell id="footer" value="&lt;div style=&quot;text-align: justify;&quot;&gt;&lt;span style=&quot;background-color: initial;&quot;&gt;Dafa Novran Hasjrullah&lt;/span&gt;&lt;/div&gt;&lt;div style=&quot;text-align: justify;&quot;&gt;&lt;span style=&quot;background-color: initial;&quot;&gt;24/541835/SV/24961&lt;/span&gt;&lt;/div&gt;&lt;div style=&quot;text-align: justify;&quot;&gt;&lt;span style=&quot;background-color: initial;&quot;&gt;Gadjah Mada Robotics Team 2026&lt;/span&gt;&lt;/div&gt;" style="text;html=1;align=right;verticalAlign=bottom;fontSize=11;fontStyle=1;fillColor=none;strokeColor=none;" parent="1" vertex="1">
          <mxGeometry x="14" y="18" width="300" height="40" as="geometry" />
        </mxCell>
        <mxCell id="e1" parent="1" source="start" target="init" edge="1">
          <mxGeometry relative="1" as="geometry" />
        </mxCell>
        <mxCell id="e2" parent="1" source="init" target="loop" edge="1">
          <mxGeometry relative="1" as="geometry" />
        </mxCell>
        <mxCell id="e3" parent="1" source="loop" target="readSensor" edge="1">
          <mxGeometry relative="1" as="geometry" />
        </mxCell>
        <mxCell id="e4" parent="1" source="readSensor" target="checkPIR" edge="1">
          <mxGeometry relative="1" as="geometry" />
        </mxCell>
        <mxCell id="e5" value="YA" style="entryX=0.5;entryY=0;entryDx=0;entryDy=0;exitX=0;exitY=0.5;exitDx=0;exitDy=0;" parent="1" source="checkPIR" target="pirAction" edge="1">
          <mxGeometry x="-0.0033" relative="1" as="geometry">
            <mxPoint x="422" y="361" as="sourcePoint" />
            <mxPoint x="297" y="435" as="targetPoint" />
            <Array as="points">
              <mxPoint x="301" y="361" />
            </Array>
            <mxPoint as="offset" />
          </mxGeometry>
        </mxCell>
        <mxCell id="e7" value="TIDAK" style="exitX=1;exitY=0.5;exitDx=0;exitDy=0;entryX=0.5;entryY=0;entryDx=0;entryDy=0;" parent="1" source="checkPIR" target="nlYioJug9uTSCS-XXyiL-2" edge="1">
          <mxGeometry relative="1" as="geometry">
            <mxPoint x="752" y="459" as="targetPoint" />
            <Array as="points">
              <mxPoint x="677" y="360" />
            </Array>
          </mxGeometry>
        </mxCell>
        <mxCell id="e8" value="ADA" style="exitX=0;exitY=0.5;exitDx=0;exitDy=0;" parent="1" source="nlYioJug9uTSCS-XXyiL-2" edge="1">
          <mxGeometry relative="1" as="geometry">
            <mxPoint x="598" y="503" as="sourcePoint" />
            <mxPoint x="505.304347826087" y="560" as="targetPoint" />
            <Array as="points">
              <mxPoint x="505" y="460" />
            </Array>
          </mxGeometry>
        </mxCell>
        <mxCell id="e9" parent="1" source="execute" target="endLoop" edge="1">
          <mxGeometry relative="1" as="geometry" />
        </mxCell>
        <mxCell id="nlYioJug9uTSCS-XXyiL-2" value="Apakah ada perintah Serial?&lt;br&gt;(ROLL / PITCH / YAW)" style="rounded=1;whiteSpace=wrap;html=1;fillColor=#60a917;strokeColor=#2D7600;fontSize=13;fontColor=#ffffff;" vertex="1" parent="1">
          <mxGeometry x="588" y="430" width="180" height="60" as="geometry" />
        </mxCell>
      </root>
    </mxGraphModel>
  </diagram>
</mxfile>
